<?xml version="1.0" encoding="UTF-8"?><!DOCTYPE svg PUBLIC "-//W3C//DTD SVG 1.1//EN" "http://www.w3.org/Graphics/SVG/1.1/DTD/svg11.dtd"><svg xmlns="http://www.w3.org/2000/svg"><symbol id="svg-gesh" viewBox="0 0 600 559"><g fill="#EEE"><path d="M151.897 76.637H40.978C20.537 76.637 4 93.212 4 113.614v406.721c0 20.44 16.537 36.978 36.978 36.978h110.919c20.441 0 36.978-16.537 36.978-36.978V113.614c0-20.402-16.537-36.977-36.978-36.977zM59.459 446.386c-10.217 0-18.481-8.265-18.481-18.488 0-10.218 8.265-18.482 18.481-18.482 10.225 0 18.489 8.265 18.489 18.482.001 10.223-8.264 18.488-18.489 18.488zm92.438-221.845H40.978v-36.978h110.919v36.978zm0-73.957H40.978v-36.971h110.919v36.971zm0 0M392.238 483.363v-36.978H281.312v36.978c-20.44 0-36.978 16.537-36.978 36.972H429.21c0-20.435-16.537-36.972-36.972-36.972zm0 0"/><path d="M558.624 2.688H114.926c-20.441 0-36.977 16.577-36.977 36.978h480.675V335.46H225.853v73.955h332.771c20.441 0 36.978-16.543 36.978-36.978V39.666c0-20.401-16.537-36.978-36.978-36.978zM336.772 390.926c-10.218 0-18.483-8.271-18.483-18.488s8.266-18.488 18.483-18.488c10.223 0 18.488 8.271 18.488 18.488s-8.265 18.488-18.488 18.488zm0 0"/></g></symbol><symbol id="svg-noimage" viewBox="0 0 600 559"><g fill="#EEE"><path d="M151.897 76.637H40.978C20.537 76.637 4 93.212 4 113.614v406.721c0 20.44 16.537 36.978 36.978 36.978h110.919c20.441 0 36.978-16.537 36.978-36.978V113.614c0-20.402-16.537-36.977-36.978-36.977zM59.459 446.386c-10.217 0-18.481-8.265-18.481-18.488 0-10.218 8.265-18.482 18.481-18.482 10.225 0 18.489 8.265 18.489 18.482.001 10.223-8.264 18.488-18.489 18.488zm92.438-221.845H40.978v-36.978h110.919v36.978zm0-73.957H40.978v-36.971h110.919v36.971zm0 0M392.238 483.363v-36.978H281.312v36.978c-20.44 0-36.978 16.537-36.978 36.972H429.21c0-20.435-16.537-36.972-36.972-36.972zm0 0"/><path d="M558.624 2.688H114.926c-20.441 0-36.977 16.577-36.977 36.978h480.675V335.46H225.853v73.955h332.771c20.441 0 36.978-16.543 36.978-36.978V39.666c0-20.401-16.537-36.978-36.978-36.978zM336.772 390.926c-10.218 0-18.483-8.271-18.483-18.488s8.266-18.488 18.483-18.488c10.223 0 18.488 8.271 18.488 18.488s-8.265 18.488-18.488 18.488zm0 0"/></g></symbol></svg>