<?xml version="1.0" encoding="utf-8"?><!--Generator: Adobe Illustrator 15.0.0, SVG Export Plug-In . SVG Version: 6.00 Build 0)--><!DOCTYPE svg PUBLIC "-//W3C//DTD SVG 1.1//EN" "http://www.w3.org/Graphics/SVG/1.1/DTD/svg11.dtd"><svg version="1.1" id="Layer_1" xmlns="http://www.w3.org/2000/svg" xmlns:xlink="http://www.w3.org/1999/xlink" x="0px" y="0px" width="600px" height="559px" viewBox="0 0 600 559" enable-background="new 0 0 600 559" xml:space="preserve"><g><path fill="#EEEEEE" d="M151.897,76.637H40.978C20.537,76.637,4,93.212,4,113.614v406.721c0,20.44,16.537,36.978,36.978,36.978
		h110.919c20.441,0,36.978-16.537,36.978-36.978V113.614C188.875,93.212,172.338,76.637,151.897,76.637L151.897,76.637z
		 M59.459,446.386c-10.217,0-18.481-8.265-18.481-18.488c0-10.218,8.265-18.482,18.481-18.482c10.225,0,18.489,8.265,18.489,18.482
		C77.949,438.121,69.684,446.386,59.459,446.386L59.459,446.386z M151.897,224.541H40.978v-36.978h110.919V224.541z
		 M151.897,150.584H40.978v-36.971h110.919V150.584z M151.897,150.584"/><path fill="#EEEEEE" d="M392.238,483.363v-36.978H281.312v36.978c-20.44,0-36.978,16.537-36.978,36.972H429.21
		C429.21,499.9,412.673,483.363,392.238,483.363L392.238,483.363z M392.238,483.363"/><path fill="#EEEEEE" d="M558.624,2.688H114.926c-20.441,0-36.977,16.577-36.977,36.978h480.675V335.46H225.853v73.955h332.771
		c20.441,0,36.978-16.543,36.978-36.978V39.666C595.602,19.265,579.065,2.688,558.624,2.688L558.624,2.688z M336.772,390.926
		c-10.218,0-18.483-8.271-18.483-18.488s8.266-18.488,18.483-18.488c10.223,0,18.488,8.271,18.488,18.488
		S346.995,390.926,336.772,390.926L336.772,390.926z M336.772,390.926"/></g></svg>